<?xml version="1.0" standalone="no"?>
<!DOCTYPE svg PUBLIC "-//W3C//DTD SVG 20010904//EN"
 "http://www.w3.org/TR/2001/REC-SVG-20010904/DTD/svg10.dtd">
<svg version="1.0" xmlns="http://www.w3.org/2000/svg"
 width="114.000000pt" height="101.000000pt" viewBox="0 0 114.000000 101.000000"
 preserveAspectRatio="xMidYMid meet">

<g transform="translate(0.000000,101.000000) scale(0.100000,-0.100000)"
fill="#000000" stroke="none">
<path d="M540 939 c0 -14 5 -19 17 -17 26 5 29 38 4 38 -15 0 -21 -6 -21 -21z"/>
<path d="M450 936 c-59 -17 -139 -58 -122 -64 7 -2 23 3 36 11 13 9 49 23 80
32 31 9 56 21 56 26 0 5 -1 9 -2 8 -2 0 -23 -6 -48 -13z"/>
<path d="M660 922 c30 -10 70 -26 88 -36 18 -9 39 -15 45 -13 20 6 -100 59
-145 63 l-43 4 55 -18z"/>
<path d="M240 815 c0 -8 7 -15 15 -15 8 0 15 7 15 15 0 8 -7 15 -15 15 -8 0
-15 -7 -15 -15z"/>
<path d="M830 815 c0 -8 9 -15 20 -15 11 0 20 7 20 15 0 8 -9 15 -20 15 -11 0
-20 -7 -20 -15z"/>
<path d="M178 703 c-31 -70 -42 -113 -29 -113 5 0 13 14 16 32 6 26 29 83 53
131 2 4 -1 7 -6 7 -5 0 -21 -26 -34 -57z"/>
<path d="M900 755 c0 -3 9 -23 19 -43 10 -20 24 -56 30 -80 7 -23 16 -42 21
-42 10 0 -15 90 -36 132 -13 25 -34 46 -34 33z"/>
<path d="M546 538 c-32 -90 -43 -135 -36 -142 16 -16 24 -1 69 127 46 133 46
133 27 140 -10 4 -26 -28 -60 -125z"/>
<path d="M385 569 c-22 -16 -40 -34 -40 -39 0 -4 20 -24 45 -44 35 -27 47 -32
58 -23 11 9 8 16 -20 39 l-33 28 28 21 c28 21 36 49 15 49 -7 0 -31 -14 -53
-31z"/>
<path d="M664 589 c-3 -6 -2 -14 3 -18 5 -3 19 -14 32 -23 l23 -16 -31 -29
c-22 -20 -28 -32 -22 -42 7 -12 19 -6 60 28 l51 43 -44 34 c-48 36 -61 40 -72
23z"/>
<path d="M120 530 c0 -13 7 -20 20 -20 13 0 20 7 20 20 0 13 -7 20 -20 20 -13
0 -20 -7 -20 -20z"/>
<path d="M960 530 c0 -13 7 -20 20 -20 13 0 20 7 20 20 0 13 -7 20 -20 20 -13
0 -20 -7 -20 -20z"/>
<path d="M146 445 c9 -52 50 -145 64 -145 6 0 2 16 -9 38 -10 20 -25 57 -32
82 -17 60 -33 77 -23 25z"/>
<path d="M956 445 c-6 -29 -28 -86 -54 -137 -2 -5 0 -8 5 -8 22 0 81 164 63
175 -4 3 -11 -11 -14 -30z"/>
<path d="M240 245 c0 -8 7 -15 15 -15 8 0 15 7 15 15 0 8 -7 15 -15 15 -8 0
-15 -7 -15 -15z"/>
<path d="M830 245 c0 -8 9 -15 20 -15 11 0 20 7 20 15 0 8 -9 15 -20 15 -11 0
-20 -7 -20 -15z"/>
<path d="M310 184 c0 -8 122 -63 158 -70 21 -4 32 -3 32 5 0 6 -10 11 -22 11
-13 0 -52 14 -86 30 -63 30 -82 35 -82 24z"/>
<path d="M740 165 c-25 -13 -62 -27 -82 -30 -37 -7 -63 -25 -35 -25 28 0 113
31 152 55 51 31 24 32 -35 0z"/>
<path d="M540 109 c0 -25 33 -22 38 4 2 12 -3 17 -17 17 -15 0 -21 -6 -21 -21z"/>
</g>
</svg>
